<svg width="359" height="130" viewBox="0 0 359 130" fill="none" xmlns="http://www.w3.org/2000/svg">
<path fill-rule="evenodd" clip-rule="evenodd" d="M245.892 26.0822V10.411H243.371V7.96348H248.96V26.0822H245.892ZM247.134 4.52969C246.525 4.52969 245.989 4.31051 245.526 3.87215C245.088 3.40944 244.869 2.87367 244.869 2.26484C244.869 1.63166 245.088 1.09589 245.526 0.657535C245.989 0.219178 246.525 0 247.134 0C247.767 0 248.303 0.219178 248.741 0.657535C249.179 1.09589 249.399 1.63166 249.399 2.26484C249.399 2.87367 249.179 3.40944 248.741 3.87215C248.303 4.31051 247.767 4.52969 247.134 4.52969ZM261.671 26.5206C260.624 26.5206 259.589 26.3379 258.566 25.9726C257.543 25.6073 256.605 25.0472 255.753 24.2922C254.925 23.5129 254.255 22.5266 253.744 21.3333C253.232 20.14 252.977 18.7276 252.977 17.0959C252.977 15.4642 253.232 14.0517 253.744 12.8584C254.255 11.6651 254.925 10.691 255.753 9.93607C256.605 9.15677 257.543 8.58447 258.566 8.21917C259.589 7.85387 260.624 7.67122 261.671 7.67122C262.718 7.67122 263.753 7.85387 264.776 8.21917C265.799 8.58447 266.724 9.15677 267.552 9.93607C268.404 10.691 269.086 11.6651 269.598 12.8584C270.109 14.0517 270.365 15.4642 270.365 17.0959C270.365 18.7276 270.109 20.14 269.598 21.3333C269.086 22.5266 268.404 23.5129 267.552 24.2922C266.724 25.0472 265.799 25.6073 264.776 25.9726C263.753 26.3379 262.718 26.5206 261.671 26.5206ZM261.671 23.8174C262.596 23.8174 263.461 23.586 264.264 23.1233C265.092 22.6362 265.762 21.9056 266.274 20.9315C266.809 19.933 267.077 18.6545 267.077 17.0959C267.077 15.5373 266.809 14.2709 266.274 13.2968C265.762 12.2983 265.092 11.5677 264.264 11.105C263.461 10.618 262.596 10.3744 261.671 10.3744C260.77 10.3744 259.905 10.618 259.077 11.105C258.249 11.5677 257.567 12.2983 257.032 13.2968C256.52 14.2709 256.264 15.5373 256.264 17.0959C256.264 18.6545 256.52 19.933 257.032 20.9315C257.567 21.9056 258.249 22.6362 259.077 23.1233C259.905 23.586 260.77 23.8174 261.671 23.8174ZM231.247 7.96346V26.0822H234.315V18.3014C234.315 16.6941 234.522 15.3425 234.936 14.2466C235.35 13.1263 236.032 12.2861 236.982 11.726C237.956 11.1415 239.271 10.8493 240.927 10.8493V7.67122C239.929 7.67122 239.015 7.82952 238.187 8.14611C237.384 8.43835 236.665 8.86453 236.032 9.42465C235.423 9.96042 234.9 10.5936 234.461 11.3242L233.475 7.96346H231.247ZM218.613 26.5206C217.566 26.5206 216.531 26.3379 215.508 25.9726C214.485 25.6073 213.547 25.0472 212.695 24.2923C211.867 23.513 211.197 22.5267 210.686 21.3334C210.174 20.1401 209.919 18.7276 209.919 17.0959C209.919 15.4642 210.174 14.0518 210.686 12.8585C211.197 11.6652 211.867 10.691 212.695 9.93608C213.547 9.15678 214.485 8.58448 215.508 8.21919C216.531 7.85389 217.566 7.67124 218.613 7.67124C219.66 7.67124 220.695 7.85389 221.718 8.21919C222.741 8.58448 223.666 9.15678 224.494 9.93608C225.346 10.691 226.028 11.6652 226.54 12.8585C227.051 14.0518 227.307 15.4642 227.307 17.0959C227.307 18.7276 227.051 20.1401 226.54 21.3334C226.028 22.5267 225.346 23.513 224.494 24.2923C223.666 25.0472 222.741 25.6073 221.718 25.9726C220.695 26.3379 219.66 26.5206 218.613 26.5206ZM218.613 23.8174C219.538 23.8174 220.403 23.586 221.206 23.1233C222.034 22.6362 222.704 21.9057 223.216 20.9315C223.751 19.933 224.019 18.6545 224.019 17.0959C224.019 15.5373 223.751 14.2709 223.216 13.2968C222.704 12.2983 222.034 11.5677 221.206 11.105C220.403 10.618 219.538 10.3744 218.613 10.3744C217.712 10.3744 216.847 10.618 216.019 11.105C215.191 11.5677 214.509 12.2983 213.974 13.2968C213.462 14.2709 213.206 15.5373 213.206 17.0959C213.206 18.6545 213.462 19.933 213.974 20.9315C214.509 21.9057 215.191 22.6362 216.019 23.1233C216.847 23.586 217.712 23.8174 218.613 23.8174ZM217.48 5.22375L220.439 1.42466C220.756 1.01065 221.024 0.718416 221.243 0.547943C221.486 0.377472 221.767 0.292236 222.083 0.292236C222.473 0.292236 222.789 0.414002 223.033 0.657533C223.301 0.876712 223.435 1.1933 223.435 1.60731C223.435 1.89954 223.313 2.19178 223.069 2.48402C222.85 2.77626 222.485 3.14155 221.974 3.57991L220.001 5.22375H217.48ZM190.436 7.96346V32H193.505V23.3425C193.87 23.9757 194.333 24.5358 194.893 25.0228C195.453 25.5099 196.098 25.8752 196.829 26.1187C197.584 26.3866 198.436 26.5206 199.386 26.5206C200.774 26.5206 202.053 26.1553 203.222 25.4247C204.415 24.6697 205.365 23.586 206.071 22.1735C206.801 20.761 207.167 19.0685 207.167 17.0959C207.167 15.0989 206.801 13.4064 206.071 12.0183C205.365 10.6058 204.415 9.53424 203.222 8.80365C202.053 8.0487 200.774 7.67122 199.386 7.67122C198.436 7.67122 197.584 7.80517 196.829 8.07305C196.098 8.31658 195.453 8.68188 194.893 9.16894C194.333 9.63165 193.87 10.1796 193.505 10.8128L192.664 7.96346H190.436ZM202.308 22.1005C201.383 23.2938 200.141 23.8904 198.582 23.8904C197.024 23.8904 195.77 23.2938 194.82 22.1005C193.894 20.9072 193.432 19.239 193.432 17.0959C193.432 14.9285 193.894 13.2603 194.82 12.0913C195.77 10.898 197.024 10.3014 198.582 10.3014C200.141 10.3014 201.383 10.898 202.308 12.0913C203.258 13.2603 203.733 14.9285 203.733 17.0959C203.733 19.239 203.258 20.9072 202.308 22.1005ZM159.578 26.0822V7.96346H161.843L162.647 10.7032C162.988 10.1187 163.402 9.6073 163.889 9.16894C164.4 8.70623 164.997 8.34094 165.679 8.07305C166.385 7.80517 167.189 7.67122 168.09 7.67122C169.478 7.67122 170.598 7.95129 171.451 8.51141C172.303 9.07153 172.924 9.85083 173.314 10.8493C174.044 9.72907 174.921 8.92541 175.944 8.43835C176.991 7.92693 178.148 7.67122 179.414 7.67122C180.827 7.67122 181.959 7.96346 182.811 8.54794C183.664 9.13241 184.285 9.94824 184.674 10.9954C185.064 12.0183 185.259 13.2237 185.259 14.6119V26.0822H182.19V15.5251C182.19 14.5997 182.093 13.7473 181.898 12.968C181.728 12.1644 181.362 11.519 180.802 11.032C180.266 10.5449 179.438 10.3014 178.318 10.3014C177.003 10.3014 175.944 10.8128 175.14 11.8356C174.361 12.8341 173.971 14.3075 173.971 16.2557V26.0822H170.903V15.5251C170.903 14.5997 170.805 13.7473 170.61 12.968C170.44 12.1644 170.075 11.519 169.515 11.032C168.979 10.5449 168.151 10.3014 167.031 10.3014C166.154 10.3014 165.387 10.5327 164.729 10.9954C164.072 11.4338 163.56 12.1035 163.195 13.0046C162.83 13.8813 162.647 14.965 162.647 16.2557V26.0822H159.578ZM139 1.6803V26.0822H155.548V23.1232H142.434V15.0136H152.114V12.0547H142.434V4.63921H155.402V1.6803H139Z" fill="#7AB899"/>
<path fill-rule="evenodd" clip-rule="evenodd" d="M220.126 128.159C222.537 128.948 225.189 129.342 228.082 129.342C231.238 129.342 234.153 128.816 236.827 127.764C239.545 126.668 241.737 125.09 243.403 123.03C245.068 120.97 245.901 118.449 245.901 115.468C245.901 112.751 245.266 110.581 243.994 108.959C242.767 107.293 241.079 106 238.931 105.079C236.784 104.115 234.307 103.326 231.501 102.712L225.452 101.397C223.611 101.003 222.164 100.389 221.112 99.5561C220.104 98.7232 219.6 97.6274 219.6 96.2685C219.6 95.0849 219.973 94.0986 220.718 93.3096C221.463 92.4767 222.449 91.863 223.677 91.4685C224.948 91.0301 226.329 90.8109 227.819 90.8109C229.222 90.8109 230.493 90.9863 231.633 91.3369C232.816 91.6876 233.847 92.2356 234.723 92.9808C235.644 93.6822 236.345 94.5589 236.827 95.6109L244.586 92.7835C243.666 90.6794 242.351 88.9917 240.641 87.7205C238.975 86.4054 237.09 85.4411 234.986 84.8274C232.882 84.1698 230.712 83.8411 228.477 83.8411C226.022 83.8411 223.742 84.1479 221.638 84.7616C219.578 85.3753 217.737 86.252 216.115 87.3917C214.537 88.4876 213.288 89.8465 212.367 91.4685C211.49 93.0465 211.052 94.8438 211.052 96.8602C211.052 99.052 211.556 100.959 212.564 102.581C213.573 104.159 214.997 105.474 216.838 106.526C218.723 107.534 220.981 108.323 223.611 108.893L229.2 110.077C232.181 110.734 234.285 111.523 235.512 112.444C236.74 113.321 237.353 114.57 237.353 116.192C237.353 117.638 236.915 118.822 236.038 119.742C235.205 120.663 234.11 121.342 232.751 121.781C231.392 122.175 229.923 122.373 228.345 122.373C226.679 122.373 225.123 122.131 223.677 121.649C222.23 121.123 220.981 120.356 219.929 119.348C218.921 118.34 218.219 117.134 217.825 115.731L210 118.559C210.877 120.882 212.17 122.855 213.879 124.477C215.633 126.099 217.715 127.326 220.126 128.159ZM284.972 95.9398V128.553H293.06V113.167C293.06 110.8 293.433 108.871 294.178 107.381C294.923 105.847 296.107 104.751 297.729 104.093C299.35 103.392 301.433 103.129 303.975 103.304V95.2165C302.266 95.1288 300.709 95.348 299.307 95.874C297.904 96.3562 296.677 97.1014 295.624 98.1096C294.572 99.1178 293.696 100.389 292.994 101.923L291.219 95.9398H284.972ZM308.179 128.553V95.9398H314.425L316.201 101.923C316.902 100.389 317.779 99.1178 318.831 98.1096C319.883 97.1014 321.11 96.3562 322.513 95.874C323.916 95.348 325.472 95.1288 327.181 95.2165V103.304C324.639 103.129 322.557 103.392 320.935 104.093C319.313 104.751 318.129 105.847 317.384 107.381C316.639 108.871 316.266 110.8 316.266 113.167V128.553H308.179ZM339.045 129.342C336.985 129.342 335.1 128.97 333.39 128.225C331.68 127.436 330.3 126.34 329.248 124.937C328.239 123.534 327.735 121.847 327.735 119.874C327.735 117.288 328.634 115.205 330.431 113.627C332.272 112.049 334.858 110.844 338.19 110.011C341.521 109.134 345.445 108.499 349.96 108.104V107.249C349.96 105.233 349.412 103.677 348.316 102.581C347.22 101.485 345.576 100.937 343.385 100.937C341.763 100.937 340.382 101.31 339.242 102.055C338.102 102.8 337.357 103.896 337.006 105.342L329.905 102.91C330.913 100.586 332.601 98.7233 334.968 97.3206C337.379 95.9178 340.25 95.2164 343.582 95.2164C348.228 95.2164 351.713 96.2685 354.037 98.3726C356.404 100.477 357.587 103.896 357.587 108.63V115.995C357.587 117.573 357.631 119.151 357.719 120.729C357.85 122.263 358.004 123.71 358.179 125.068C358.354 126.384 358.552 127.545 358.771 128.553H351.341L350.091 124.411C348.995 126.077 347.527 127.326 345.686 128.159C343.845 128.948 341.631 129.342 339.045 129.342ZM341.741 123.556C343.275 123.556 344.656 123.315 345.883 122.833C347.111 122.307 348.097 121.43 348.842 120.203C349.587 118.975 349.96 117.288 349.96 115.14V113.364C345.62 113.715 342.245 114.351 339.834 115.271C337.467 116.148 336.283 117.529 336.283 119.414C336.283 120.641 336.765 121.649 337.73 122.438C338.738 123.184 340.075 123.556 341.741 123.556ZM265.267 129.342C261.804 129.342 258.779 128.619 256.193 127.173C253.651 125.726 251.678 123.732 250.275 121.189C248.872 118.603 248.171 115.6 248.171 112.181C248.171 108.718 248.938 105.715 250.472 103.173C252.007 100.63 254.023 98.6795 256.522 97.3206C259.064 95.9178 261.892 95.2164 265.004 95.2164C267.634 95.2164 269.979 95.7206 272.04 96.7288C274.1 97.6932 275.831 99.0521 277.234 100.805C278.637 102.559 279.667 104.597 280.324 106.921C280.982 109.244 281.223 111.742 281.048 114.416H256.259C256.478 115.995 256.872 117.332 257.442 118.427C258.056 119.523 258.779 120.4 259.612 121.058C260.445 121.671 261.344 122.132 262.308 122.438C263.272 122.701 264.215 122.833 265.135 122.833C266.801 122.833 268.204 122.592 269.344 122.11C270.527 121.584 271.47 120.904 272.171 120.071L278.944 122.373C277.453 124.608 275.503 126.34 273.092 127.567C270.724 128.751 268.116 129.342 265.267 129.342ZM256.259 109.025H273.223C273.179 107.578 272.807 106.285 272.105 105.145C271.404 104.005 270.461 103.107 269.278 102.449C268.094 101.792 266.714 101.463 265.135 101.463C263.82 101.463 262.527 101.704 261.256 102.186C260.029 102.668 258.955 103.458 258.034 104.553C257.157 105.649 256.566 107.14 256.259 109.025Z" fill="#26734D"/>
<path fill-rule="evenodd" clip-rule="evenodd" d="M146.036 127.501C148.14 128.729 150.375 129.342 152.742 129.342C155.636 129.342 157.959 128.751 159.712 127.567C161.466 126.384 162.759 124.959 163.592 123.293L165.104 128.553H168.392C167.822 125.441 167.493 122.855 167.405 120.795C167.318 118.734 167.274 117.31 167.274 116.521V84H163.723V101.66C162.803 99.9507 161.488 98.4603 159.778 97.189C158.068 95.9178 155.723 95.2822 152.742 95.2822C150.156 95.2822 147.811 95.9616 145.707 97.3205C143.647 98.6794 142.003 100.652 140.775 103.238C139.592 105.825 139 108.937 139 112.575C139 116.258 139.658 119.348 140.973 121.847C142.288 124.345 143.975 126.23 146.036 127.501ZM158.858 124.477C157.323 125.616 155.46 126.186 153.268 126.186C149.937 126.186 147.329 125.003 145.444 122.636C143.559 120.268 142.616 116.915 142.616 112.575C142.616 108.148 143.559 104.685 145.444 102.186C147.329 99.6877 149.937 98.4383 153.268 98.4383C156.468 98.4383 159.011 99.7096 160.896 102.252C162.781 104.795 163.723 108.214 163.723 112.51C163.723 115.271 163.307 117.682 162.474 119.742C161.641 121.759 160.436 123.337 158.858 124.477ZM178.506 128.356C180.216 129.014 182.123 129.342 184.227 129.342C187.471 129.342 190.013 128.707 191.854 127.436C193.695 126.121 194.967 124.718 195.668 123.227L196.983 128.553H199.876C199.657 127.589 199.46 126.515 199.284 125.331C199.109 124.148 198.956 122.789 198.824 121.255C198.737 119.677 198.693 117.858 198.693 115.797V107.907C198.693 103.786 197.728 100.652 195.8 98.5041C193.915 96.3562 190.956 95.2822 186.923 95.2822C184.249 95.2822 181.816 95.9616 179.624 97.3205C177.432 98.6356 175.898 100.608 175.022 103.238L178.704 104.093C179.098 102.427 179.997 101.047 181.4 99.9507C182.846 98.8548 184.709 98.3069 186.989 98.3069C189.838 98.3069 191.92 99.1616 193.235 100.871C194.55 102.537 195.208 104.795 195.208 107.644V108.499C190.079 108.849 185.871 109.507 182.583 110.471C179.339 111.392 176.928 112.685 175.35 114.351C173.816 115.973 173.049 118.033 173.049 120.531C173.049 122.416 173.531 124.016 174.495 125.331C175.504 126.647 176.841 127.655 178.506 128.356ZM189.685 125.266C188.063 125.923 186.309 126.252 184.424 126.252C182.057 126.252 180.172 125.704 178.769 124.608C177.367 123.512 176.665 122.088 176.665 120.334C176.665 117.748 178.134 115.731 181.071 114.285C184.052 112.795 188.764 111.83 195.208 111.392V115.731C195.208 118.274 194.704 120.334 193.695 121.912C192.687 123.447 191.35 124.564 189.685 125.266Z" fill="#7AB899"/>
<path fill-rule="evenodd" clip-rule="evenodd" d="M269.312 52.7123V79.1452H277.4V46.5315H264.249V52.7123H269.312ZM275.887 34.0384L269.969 41.4685H276.15L279.833 38.6411C280.797 37.8959 281.454 37.2384 281.805 36.6685C282.156 36.0986 282.331 35.5288 282.331 34.9589C282.331 34.0822 282.046 33.3808 281.476 32.8548C280.95 32.2849 280.227 32 279.306 32C278.605 32 278.013 32.1534 277.531 32.4603C277.049 32.7671 276.501 33.2931 275.887 34.0384ZM296.544 80C294.265 80 292.095 79.6931 290.035 79.0794C288.018 78.4219 286.265 77.4794 284.774 76.252C283.284 75.0246 282.166 73.5123 281.421 71.7151L288.522 69.0849C288.917 70.663 289.903 71.8685 291.481 72.7014C293.059 73.4904 294.769 73.8849 296.61 73.8849C298.407 73.8849 299.963 73.5342 301.278 72.8329C302.637 72.1315 303.317 71.1452 303.317 69.874C303.317 68.8657 302.878 68.0767 302.002 67.5068C301.125 66.8931 299.613 66.389 297.465 65.9945L292.665 65.0082C290.692 64.6137 288.917 64.0438 287.339 63.2986C285.804 62.5096 284.599 61.5014 283.722 60.274C282.846 59.0027 282.407 57.4685 282.407 55.6712C282.407 53.5233 283.065 51.726 284.38 50.2795C285.695 48.789 287.404 47.6712 289.509 46.926C291.613 46.137 293.892 45.7425 296.347 45.7425C299.328 45.7425 302.089 46.3123 304.632 47.4521C307.174 48.5479 309.015 50.389 310.155 52.9753L303.12 55.5397C302.593 54.2685 301.695 53.326 300.424 52.7123C299.196 52.0986 297.75 51.7918 296.084 51.7918C294.287 51.7918 292.862 52.1205 291.81 52.7781C290.758 53.3918 290.232 54.2466 290.232 55.3425C290.232 56.2192 290.583 56.9205 291.284 57.4466C292.029 57.9288 293.235 58.3452 294.9 58.6959L299.832 59.6822C302.33 60.1644 304.413 60.7781 306.078 61.5233C307.744 62.2685 308.993 63.2767 309.826 64.5479C310.703 65.7753 311.141 67.3973 311.141 69.4137C311.141 71.6493 310.484 73.5562 309.169 75.1342C307.854 76.7123 306.1 77.9178 303.909 78.7507C301.717 79.5835 299.262 80 296.544 80ZM329.687 79.9343C327.583 79.9343 325.544 79.6055 323.572 78.948C321.599 78.2466 319.824 77.2164 318.246 75.8575C316.668 74.4548 315.396 72.6795 314.432 70.5315C313.512 68.3397 313.051 65.7754 313.051 62.8384C313.051 59.9014 313.512 57.3589 314.432 55.211C315.396 53.063 316.668 51.2877 318.246 49.885C319.824 48.4822 321.599 47.4521 323.572 46.7945C325.544 46.137 327.583 45.8082 329.687 45.8082C331.791 45.8082 333.807 46.137 335.736 46.7945C337.709 47.4521 339.484 48.4822 341.062 49.885C342.64 51.2877 343.89 53.063 344.81 55.211C345.775 57.3589 346.257 59.9014 346.257 62.8384C346.257 65.7754 345.775 68.3397 344.81 70.5315C343.89 72.6795 342.64 74.4548 341.062 75.8575C339.484 77.2164 337.709 78.2466 335.736 78.948C333.807 79.6055 331.791 79.9343 329.687 79.9343ZM329.687 73.4247C331.133 73.4247 332.47 73.074 333.698 72.3726C334.969 71.6712 335.977 70.5534 336.722 69.0192C337.512 67.4411 337.906 65.3808 337.906 62.8384C337.906 60.3397 337.512 58.3233 336.722 56.7891C335.977 55.211 334.969 54.0713 333.698 53.3699C332.47 52.6247 331.133 52.2521 329.687 52.2521C328.24 52.2521 326.881 52.6247 325.61 53.3699C324.339 54.0713 323.309 55.211 322.52 56.7891C321.775 58.3233 321.402 60.3397 321.402 62.8384C321.402 65.3808 321.775 67.4411 322.52 69.0192C323.309 70.5534 324.339 71.6712 325.61 72.3726C326.881 73.074 328.24 73.4247 329.687 73.4247ZM242.213 79.9343C240.152 79.9343 238.268 79.5617 236.558 78.8164C234.848 78.0274 233.468 76.9315 232.416 75.5288C231.407 74.126 230.903 72.4384 230.903 70.4658C230.903 67.8795 231.802 65.7973 233.599 64.2192C235.44 62.6411 238.026 61.4356 241.358 60.6028C244.689 59.726 248.613 59.0904 253.128 58.6959V57.8411C253.128 55.8247 252.58 54.2685 251.484 53.1726C250.388 52.0767 248.744 51.5288 246.552 51.5288C244.931 51.5288 243.55 51.9014 242.41 52.6466C241.27 53.3918 240.525 54.4877 240.174 55.9343L233.073 53.5014C234.081 51.1781 235.769 49.3151 238.136 47.9124C240.547 46.5096 243.418 45.8082 246.75 45.8082C251.396 45.8082 254.881 46.8603 257.205 48.9644C259.572 51.0685 260.755 54.4877 260.755 59.2219V66.5863C260.755 68.1644 260.799 69.7425 260.887 71.3206C261.018 72.8548 261.172 74.3014 261.347 75.6603C261.522 76.9754 261.72 78.137 261.939 79.1452H254.509L253.259 75.0028C252.163 76.6685 250.695 77.9178 248.854 78.7507C247.013 79.5397 244.799 79.9343 242.213 79.9343ZM244.909 74.148C246.443 74.148 247.824 73.9069 249.051 73.4247C250.279 72.8986 251.265 72.0219 252.01 70.7945C252.755 69.5671 253.128 67.8795 253.128 65.7315V63.9562C248.788 64.3069 245.413 64.9425 243.002 65.863C240.635 66.7397 239.451 68.1206 239.451 70.0055C239.451 71.2329 239.933 72.2411 240.898 73.0302C241.906 73.7754 243.243 74.148 244.909 74.148ZM211.347 46.5316V79.1452H219.434V63.7589C219.434 61.3918 219.807 59.4631 220.552 57.9726C221.297 56.4384 222.481 55.3425 224.103 54.685C225.725 53.9836 227.807 53.7206 230.349 53.8959V45.8083C228.64 45.7206 227.084 45.9398 225.681 46.4658C224.278 46.948 223.051 47.6932 221.999 48.7014C220.947 49.7096 220.07 50.9809 219.369 52.5151L217.593 46.5316H211.347ZM186.233 79.9343C184.172 79.9343 182.287 79.5617 180.578 78.8164C178.868 78.0274 177.487 76.9315 176.435 75.5288C175.427 74.126 174.923 72.4384 174.923 70.4658C174.923 67.8795 175.822 65.7973 177.619 64.2192C179.46 62.6411 182.046 61.4356 185.378 60.6028C188.709 59.726 192.633 59.0904 197.148 58.6959V57.8411C197.148 55.8247 196.6 54.2685 195.504 53.1726C194.408 52.0767 192.764 51.5288 190.572 51.5288C188.95 51.5288 187.569 51.9014 186.43 52.6466C185.29 53.3918 184.545 54.4877 184.194 55.9343L177.093 53.5014C178.101 51.1781 179.789 49.3151 182.156 47.9124C184.567 46.5096 187.438 45.8082 190.769 45.8082C195.416 45.8082 198.901 46.8603 201.224 48.9644C203.591 51.0685 204.775 54.4877 204.775 59.2219V66.5863C204.775 68.1644 204.819 69.7425 204.906 71.3206C205.038 72.8548 205.191 74.3014 205.367 75.6603C205.542 76.9754 205.739 78.137 205.959 79.1452H198.528L197.279 75.0028C196.183 76.6685 194.715 77.9178 192.874 78.7507C191.033 79.5397 188.819 79.9343 186.233 79.9343ZM188.928 74.148C190.463 74.148 191.843 73.9069 193.071 73.4247C194.298 72.8986 195.285 72.0219 196.03 70.7945C196.775 69.5671 197.148 67.8795 197.148 65.7315V63.9562C192.808 64.3069 189.433 64.9425 187.022 65.863C184.654 66.7397 183.471 68.1206 183.471 70.0055C183.471 71.2329 183.953 72.2411 184.917 73.0302C185.926 73.7754 187.263 74.148 188.928 74.148ZM139 35.222V79.1452H147.548V62.9699H156.951C160.107 62.9699 162.956 62.4877 165.499 61.5233C168.041 60.5589 170.036 59.0685 171.482 57.0521C172.973 54.9918 173.718 52.3398 173.718 49.0959C173.718 45.8521 172.973 43.222 171.482 41.2055C170.036 39.1452 168.041 37.6329 165.499 36.6685C162.956 35.7042 160.107 35.222 156.951 35.222H139ZM156.688 55.6713H147.548V42.5206H156.688C159.055 42.5206 161.005 43.0247 162.54 44.0329C164.074 44.9973 164.841 46.685 164.841 49.0959C164.841 51.5069 164.074 53.2165 162.54 54.2247C161.005 55.1891 159.055 55.6713 156.688 55.6713Z" fill="#26734D"/>
<path fill-rule="evenodd" clip-rule="evenodd" d="M51.7602 37.7329C54.3703 33.6823 58.9208 31 64.0978 31C72.198 31 78.7645 37.5665 78.7645 45.6667C78.7645 47.917 78.2577 50.049 77.352 51.9547C78.4452 51.4728 79.6909 51.1462 81.0713 51.1462C82.3165 51.1462 83.4778 51.3745 84.5523 51.7466C85.1241 49.8198 85.4312 47.7791 85.4312 45.6667C85.4312 33.8846 75.8799 24.3333 64.0978 24.3333C56.2342 24.3333 49.3643 28.588 45.6646 34.9208C46.643 35.0154 47.6392 35.2632 48.6333 35.6956C49.7881 36.1979 50.824 36.8984 51.7602 37.7329Z" fill="#EDBE5E"/>
<path d="M103.906 33.0766L61.9597 8.85873C59.2067 7.26931 55.815 7.26931 53.062 8.85873L11.1155 33.0766C8.36255 34.666 6.66667 37.6033 6.66667 40.7822V66.0629C5.77048 66.6684 4.86195 67.2556 3.94547 67.8462L3.71248 67.9962C2.52829 68.7589 1.24498 69.5853 0 70.4915V40.7822C0 35.2216 2.96654 30.0834 7.78217 27.3031L49.7287 3.08523C54.5443 0.304926 60.4774 0.304925 65.293 3.08522L107.24 27.3031C112.055 30.0834 115.022 35.2216 115.022 40.7822V76.6069C114.814 76.4055 114.608 76.2084 114.404 76.0161C112.788 74.4948 110.829 72.8336 108.888 71.9407C108.709 71.8583 108.531 71.7737 108.355 71.6869V40.7822C108.355 37.6033 106.659 34.666 103.906 33.0766Z" fill="#7AB899"/>
<path fill-rule="evenodd" clip-rule="evenodd" d="M0 77.5192V89.2178C0 94.7784 2.96655 99.9166 7.78217 102.697L49.7287 126.915C54.5443 129.695 60.4774 129.695 65.293 126.915L107.24 102.697C111.321 100.341 114.074 96.2908 114.819 91.7255C114.953 90.904 115.022 90.0658 115.022 89.2178V84.3237C112.605 81.6425 110.235 79.2598 108.355 77.8476C107.73 77.3782 107.159 77.016 106.659 76.7858C101.227 74.2866 97.0814 70.2253 92.3642 65.0706C87.6469 59.9159 84.3591 56.4795 81.0713 56.4795C78.3259 56.4795 75.6803 59.9646 73.6336 62.6606C73.2292 63.1933 72.8482 63.6953 72.4944 64.1334C70.3502 66.7889 66.4906 62.5714 62.488 57.4167C60.3156 54.6189 57.9326 52.1432 55.499 49.615C53.4489 47.4853 51.363 45.3182 49.3368 42.8899C45.413 38.1873 42.1616 40.5879 38.6895 43.1515C38.2404 43.4831 37.7876 43.8174 37.3292 44.1395C33.5879 46.7676 24.4761 56.4924 18.5161 62.8535L18.5114 62.8585C18.0969 63.3009 17.6976 63.7271 17.3164 64.1334C13.8981 67.7776 10.1393 70.1997 6.83433 72.3293C4.47281 73.851 2.34295 75.2235 0.734463 76.7858C0.521984 76.9922 0.275793 77.2382 0 77.5192ZM108.355 86.0217C107.387 85.5021 106.217 85.2999 104.658 85.6893C104.01 85.8512 103.438 85.9852 102.928 86.1045C99.5032 86.9067 98.9036 87.0472 97.0814 90.5316C95.3661 93.8119 94.7657 94.9053 91.7924 94.9053C91.2206 94.8012 89.7053 94.9678 88.2187 96.4673C86.3603 98.3417 84.3591 98.3417 86.9321 94.1243C89.3432 90.1724 91.7542 88.1406 93.1068 87.0008C93.1977 86.9242 93.2838 86.8516 93.3648 86.7827C94.6513 85.6893 95.652 84.2835 94.2225 82.8777C93.7607 82.4235 93.3138 81.7574 92.8095 81.0057C91.7528 79.4308 90.4443 77.4803 88.2187 76.3172C84.9309 74.599 83.0725 69.9129 82.6437 67.726C82.5777 67.3893 82.5184 66.9821 82.4549 66.5462C82.1064 64.1516 81.6316 60.8897 79.2129 63.6648C76.9258 66.289 64.7275 78.3999 58.9143 84.1273C57.9137 81.8364 55.0833 77.1607 51.7669 76.7858C49.2977 76.5067 48.0964 78.0009 46.7432 79.6842C45.8245 80.8268 44.8358 82.0566 43.333 82.8777C42.4121 83.3808 41.4737 83.8072 40.5786 84.214C39.4477 84.7278 38.3859 85.2103 37.5162 85.7763C35.9455 86.6969 34.9887 87.7764 33.6456 90.015C32.0891 92.6091 25.8634 98.316 27.4198 95.2031C28.9658 92.1111 29.9999 87.4836 27.4716 88.9469C27.2782 88.9116 27.0398 88.917 26.751 88.9696C24.1779 89.4382 22.7485 89.282 24.7497 88.0324C25.6536 87.468 27.2282 86.7442 28.8677 85.9907C30.8579 85.0759 32.944 84.1171 34.0414 83.3463C36.0426 81.9405 37.758 80.5347 38.9016 78.1916C40.0452 75.8486 42.4753 74.2865 45.0484 73.6617C47.6214 73.0369 48.4791 72.0997 47.6214 69.6005C47.3746 68.8811 47.3053 67.8254 47.2331 66.7237C47.0543 63.9976 46.8571 60.9903 43.9048 62.1028C41.4105 63.0426 40.2617 63.6431 39.3064 64.1426C38.674 64.4732 38.1263 64.7595 37.3292 65.0706C35.3279 65.8516 33.8984 65.8516 38.1869 62.1028C38.7938 61.5722 39.3434 61.1042 39.8399 60.6815C42.8513 58.1176 43.9048 57.2206 43.9048 54.1364C43.9048 50.5438 43.0471 44.6081 38.9016 47.5759C36.3814 49.3802 32.8045 53.3783 29.7769 56.7624C27.8245 58.9447 26.1005 60.8717 25.0356 61.7903C23.7268 62.9194 22.0861 64.8828 20.4493 66.8414C18.6895 68.9472 16.9342 71.0477 15.6011 72.0997C13.8095 73.5136 14.0277 74.2459 14.3254 75.2458C14.4554 75.6819 14.6004 76.169 14.6004 76.7858C14.6004 77.724 14.753 78.8288 14.903 79.9156C15.0778 81.181 15.2491 82.4219 15.1722 83.3463C15.1595 83.4986 15.1491 83.6447 15.1393 83.7831C15.0378 85.2061 14.9948 85.8079 13.1709 83.8149C12.9448 83.5678 12.7388 83.3387 12.5481 83.1267L12.5475 83.126C11.0508 81.4614 10.4983 80.8471 8.59661 80.8471C7.85933 80.8471 7.39246 80.607 6.94031 80.3745C6.8492 80.3276 6.75868 80.2811 6.66667 80.2369V89.2178C6.66667 92.3966 8.36255 95.334 11.1155 96.9234L53.062 121.141C55.815 122.731 59.2067 122.731 61.9597 121.141L103.906 96.9234C106.659 95.334 108.355 92.3966 108.355 89.2178V86.0217Z" fill="#26734D"/>
</svg>